<mxfile host="app.diagrams.net" modified="2022-03-22T21:50:16.018Z" agent="5.0 (Windows NT 10.0; Win64; x64) AppleWebKit/537.36 (KHTML, like Gecko) Chrome/98.0.4758.109 Safari/537.36 OPR/84.0.4316.43" etag="IehBe1H729Hzxw6htnvo" version="17.1.3" type="github">
  <diagram id="mN1ouyrNTuctR9NaxwXK" name="Page-1">
    <mxGraphModel dx="3988" dy="2320" grid="1" gridSize="10" guides="1" tooltips="1" connect="1" arrows="1" fold="1" page="1" pageScale="1" pageWidth="827" pageHeight="1169" math="0" shadow="0">
      <root>
        <mxCell id="0" />
        <mxCell id="1" parent="0" />
        <mxCell id="VDZjWGTv7sK5HXdo6hYH-1" value="Objednávka" style="swimlane;fontStyle=1;align=center;verticalAlign=top;childLayout=stackLayout;horizontal=1;startSize=26;horizontalStack=0;resizeParent=1;resizeParentMax=0;resizeLast=0;collapsible=1;marginBottom=0;" parent="1" vertex="1">
          <mxGeometry x="640" y="593" width="160" height="190" as="geometry" />
        </mxCell>
        <mxCell id="VDZjWGTv7sK5HXdo6hYH-2" value="poloha" style="text;strokeColor=none;fillColor=none;align=left;verticalAlign=top;spacingLeft=4;spacingRight=4;overflow=hidden;rotatable=0;points=[[0,0.5],[1,0.5]];portConstraint=eastwest;" parent="VDZjWGTv7sK5HXdo6hYH-1" vertex="1">
          <mxGeometry y="26" width="160" height="26" as="geometry" />
        </mxCell>
        <mxCell id="VDZjWGTv7sK5HXdo6hYH-36" value="destinácia" style="text;strokeColor=none;fillColor=none;align=left;verticalAlign=top;spacingLeft=4;spacingRight=4;overflow=hidden;rotatable=0;points=[[0,0.5],[1,0.5]];portConstraint=eastwest;" parent="VDZjWGTv7sK5HXdo6hYH-1" vertex="1">
          <mxGeometry y="52" width="160" height="26" as="geometry" />
        </mxCell>
        <mxCell id="o1BVJ0uTKJW_cMdWR_Qv-1" value="odhadovaná cena" style="text;strokeColor=none;fillColor=none;align=left;verticalAlign=top;spacingLeft=4;spacingRight=4;overflow=hidden;rotatable=0;points=[[0,0.5],[1,0.5]];portConstraint=eastwest;" parent="VDZjWGTv7sK5HXdo6hYH-1" vertex="1">
          <mxGeometry y="78" width="160" height="26" as="geometry" />
        </mxCell>
        <mxCell id="VDZjWGTv7sK5HXdo6hYH-3" value="" style="line;strokeWidth=1;fillColor=none;align=left;verticalAlign=middle;spacingTop=-1;spacingLeft=3;spacingRight=3;rotatable=0;labelPosition=right;points=[];portConstraint=eastwest;" parent="VDZjWGTv7sK5HXdo6hYH-1" vertex="1">
          <mxGeometry y="104" width="160" height="8" as="geometry" />
        </mxCell>
        <mxCell id="VDZjWGTv7sK5HXdo6hYH-4" value="vyplniť" style="text;strokeColor=none;fillColor=none;align=left;verticalAlign=top;spacingLeft=4;spacingRight=4;overflow=hidden;rotatable=0;points=[[0,0.5],[1,0.5]];portConstraint=eastwest;" parent="VDZjWGTv7sK5HXdo6hYH-1" vertex="1">
          <mxGeometry y="112" width="160" height="26" as="geometry" />
        </mxCell>
        <mxCell id="VDZjWGTv7sK5HXdo6hYH-37" value="odoslat" style="text;strokeColor=none;fillColor=none;align=left;verticalAlign=top;spacingLeft=4;spacingRight=4;overflow=hidden;rotatable=0;points=[[0,0.5],[1,0.5]];portConstraint=eastwest;" parent="VDZjWGTv7sK5HXdo6hYH-1" vertex="1">
          <mxGeometry y="138" width="160" height="26" as="geometry" />
        </mxCell>
        <mxCell id="VDZjWGTv7sK5HXdo6hYH-38" value="prijať" style="text;strokeColor=none;fillColor=none;align=left;verticalAlign=top;spacingLeft=4;spacingRight=4;overflow=hidden;rotatable=0;points=[[0,0.5],[1,0.5]];portConstraint=eastwest;" parent="VDZjWGTv7sK5HXdo6hYH-1" vertex="1">
          <mxGeometry y="164" width="160" height="26" as="geometry" />
        </mxCell>
        <mxCell id="VDZjWGTv7sK5HXdo6hYH-9" value="Hodnotenie" style="swimlane;fontStyle=1;align=center;verticalAlign=top;childLayout=stackLayout;horizontal=1;startSize=26;horizontalStack=0;resizeParent=1;resizeParentMax=0;resizeLast=0;collapsible=1;marginBottom=0;" parent="1" vertex="1">
          <mxGeometry x="1120" y="229" width="160" height="138" as="geometry" />
        </mxCell>
        <mxCell id="VDZjWGTv7sK5HXdo6hYH-10" value="počet hviezdičiek" style="text;strokeColor=none;fillColor=none;align=left;verticalAlign=top;spacingLeft=4;spacingRight=4;overflow=hidden;rotatable=0;points=[[0,0.5],[1,0.5]];portConstraint=eastwest;" parent="VDZjWGTv7sK5HXdo6hYH-9" vertex="1">
          <mxGeometry y="26" width="160" height="26" as="geometry" />
        </mxCell>
        <mxCell id="VDZjWGTv7sK5HXdo6hYH-47" value="autor" style="text;strokeColor=none;fillColor=none;align=left;verticalAlign=top;spacingLeft=4;spacingRight=4;overflow=hidden;rotatable=0;points=[[0,0.5],[1,0.5]];portConstraint=eastwest;" parent="VDZjWGTv7sK5HXdo6hYH-9" vertex="1">
          <mxGeometry y="52" width="160" height="26" as="geometry" />
        </mxCell>
        <mxCell id="VDZjWGTv7sK5HXdo6hYH-11" value="" style="line;strokeWidth=1;fillColor=none;align=left;verticalAlign=middle;spacingTop=-1;spacingLeft=3;spacingRight=3;rotatable=0;labelPosition=right;points=[];portConstraint=eastwest;" parent="VDZjWGTv7sK5HXdo6hYH-9" vertex="1">
          <mxGeometry y="78" width="160" height="8" as="geometry" />
        </mxCell>
        <mxCell id="VDZjWGTv7sK5HXdo6hYH-12" value="udeliť" style="text;strokeColor=none;fillColor=none;align=left;verticalAlign=top;spacingLeft=4;spacingRight=4;overflow=hidden;rotatable=0;points=[[0,0.5],[1,0.5]];portConstraint=eastwest;" parent="VDZjWGTv7sK5HXdo6hYH-9" vertex="1">
          <mxGeometry y="86" width="160" height="26" as="geometry" />
        </mxCell>
        <mxCell id="VDZjWGTv7sK5HXdo6hYH-51" value="upraviť" style="text;strokeColor=none;fillColor=none;align=left;verticalAlign=top;spacingLeft=4;spacingRight=4;overflow=hidden;rotatable=0;points=[[0,0.5],[1,0.5]];portConstraint=eastwest;" parent="VDZjWGTv7sK5HXdo6hYH-9" vertex="1">
          <mxGeometry y="112" width="160" height="26" as="geometry" />
        </mxCell>
        <mxCell id="VDZjWGTv7sK5HXdo6hYH-13" value="Profil taxikára" style="swimlane;fontStyle=1;align=center;verticalAlign=top;childLayout=stackLayout;horizontal=1;startSize=26;horizontalStack=0;resizeParent=1;resizeParentMax=0;resizeLast=0;collapsible=1;marginBottom=0;" parent="1" vertex="1">
          <mxGeometry x="850" y="216" width="160" height="164" as="geometry" />
        </mxCell>
        <mxCell id="VDZjWGTv7sK5HXdo6hYH-14" value="počet jázd" style="text;strokeColor=none;fillColor=none;align=left;verticalAlign=top;spacingLeft=4;spacingRight=4;overflow=hidden;rotatable=0;points=[[0,0.5],[1,0.5]];portConstraint=eastwest;" parent="VDZjWGTv7sK5HXdo6hYH-13" vertex="1">
          <mxGeometry y="26" width="160" height="26" as="geometry" />
        </mxCell>
        <mxCell id="VDZjWGTv7sK5HXdo6hYH-43" value="popis" style="text;strokeColor=none;fillColor=none;align=left;verticalAlign=top;spacingLeft=4;spacingRight=4;overflow=hidden;rotatable=0;points=[[0,0.5],[1,0.5]];portConstraint=eastwest;" parent="VDZjWGTv7sK5HXdo6hYH-13" vertex="1">
          <mxGeometry y="52" width="160" height="26" as="geometry" />
        </mxCell>
        <mxCell id="VDZjWGTv7sK5HXdo6hYH-15" value="" style="line;strokeWidth=1;fillColor=none;align=left;verticalAlign=middle;spacingTop=-1;spacingLeft=3;spacingRight=3;rotatable=0;labelPosition=right;points=[];portConstraint=eastwest;" parent="VDZjWGTv7sK5HXdo6hYH-13" vertex="1">
          <mxGeometry y="78" width="160" height="8" as="geometry" />
        </mxCell>
        <mxCell id="VDZjWGTv7sK5HXdo6hYH-16" value="vytvoriť" style="text;strokeColor=none;fillColor=none;align=left;verticalAlign=top;spacingLeft=4;spacingRight=4;overflow=hidden;rotatable=0;points=[[0,0.5],[1,0.5]];portConstraint=eastwest;" parent="VDZjWGTv7sK5HXdo6hYH-13" vertex="1">
          <mxGeometry y="86" width="160" height="26" as="geometry" />
        </mxCell>
        <mxCell id="VDZjWGTv7sK5HXdo6hYH-49" value="upraviť" style="text;strokeColor=none;fillColor=none;align=left;verticalAlign=top;spacingLeft=4;spacingRight=4;overflow=hidden;rotatable=0;points=[[0,0.5],[1,0.5]];portConstraint=eastwest;" parent="VDZjWGTv7sK5HXdo6hYH-13" vertex="1">
          <mxGeometry y="112" width="160" height="26" as="geometry" />
        </mxCell>
        <mxCell id="VDZjWGTv7sK5HXdo6hYH-50" value="zrušiť" style="text;strokeColor=none;fillColor=none;align=left;verticalAlign=top;spacingLeft=4;spacingRight=4;overflow=hidden;rotatable=0;points=[[0,0.5],[1,0.5]];portConstraint=eastwest;" parent="VDZjWGTv7sK5HXdo6hYH-13" vertex="1">
          <mxGeometry y="138" width="160" height="26" as="geometry" />
        </mxCell>
        <mxCell id="VDZjWGTv7sK5HXdo6hYH-52" value="Platba" style="swimlane;fontStyle=1;align=center;verticalAlign=top;childLayout=stackLayout;horizontal=1;startSize=26;horizontalStack=0;resizeParent=1;resizeParentMax=0;resizeLast=0;collapsible=1;marginBottom=0;" parent="1" vertex="1">
          <mxGeometry x="640" y="403" width="160" height="112" as="geometry" />
        </mxCell>
        <mxCell id="VDZjWGTv7sK5HXdo6hYH-58" value="suma" style="text;strokeColor=none;fillColor=none;align=left;verticalAlign=top;spacingLeft=4;spacingRight=4;overflow=hidden;rotatable=0;points=[[0,0.5],[1,0.5]];portConstraint=eastwest;" parent="VDZjWGTv7sK5HXdo6hYH-52" vertex="1">
          <mxGeometry y="26" width="160" height="26" as="geometry" />
        </mxCell>
        <mxCell id="VDZjWGTv7sK5HXdo6hYH-53" value="číslo účtu" style="text;strokeColor=none;fillColor=none;align=left;verticalAlign=top;spacingLeft=4;spacingRight=4;overflow=hidden;rotatable=0;points=[[0,0.5],[1,0.5]];portConstraint=eastwest;" parent="VDZjWGTv7sK5HXdo6hYH-52" vertex="1">
          <mxGeometry y="52" width="160" height="26" as="geometry" />
        </mxCell>
        <mxCell id="VDZjWGTv7sK5HXdo6hYH-54" value="" style="line;strokeWidth=1;fillColor=none;align=left;verticalAlign=middle;spacingTop=-1;spacingLeft=3;spacingRight=3;rotatable=0;labelPosition=right;points=[];portConstraint=eastwest;" parent="VDZjWGTv7sK5HXdo6hYH-52" vertex="1">
          <mxGeometry y="78" width="160" height="8" as="geometry" />
        </mxCell>
        <mxCell id="VDZjWGTv7sK5HXdo6hYH-55" value="zaplatiť" style="text;strokeColor=none;fillColor=none;align=left;verticalAlign=top;spacingLeft=4;spacingRight=4;overflow=hidden;rotatable=0;points=[[0,0.5],[1,0.5]];portConstraint=eastwest;" parent="VDZjWGTv7sK5HXdo6hYH-52" vertex="1">
          <mxGeometry y="86" width="160" height="26" as="geometry" />
        </mxCell>
        <mxCell id="jdFO0gg6krLH-1RtM8wd-1" value="Profil zákazníka" style="swimlane;fontStyle=1;align=center;verticalAlign=top;childLayout=stackLayout;horizontal=1;startSize=26;horizontalStack=0;resizeParent=1;resizeParentMax=0;resizeLast=0;collapsible=1;marginBottom=0;" parent="1" vertex="1">
          <mxGeometry x="430" y="190" width="160" height="190" as="geometry" />
        </mxCell>
        <mxCell id="jdFO0gg6krLH-1RtM8wd-2" value="meno" style="text;strokeColor=none;fillColor=none;align=left;verticalAlign=top;spacingLeft=4;spacingRight=4;overflow=hidden;rotatable=0;points=[[0,0.5],[1,0.5]];portConstraint=eastwest;" parent="jdFO0gg6krLH-1RtM8wd-1" vertex="1">
          <mxGeometry y="26" width="160" height="26" as="geometry" />
        </mxCell>
        <mxCell id="C7E4gYj_CncNiSk5vlhF-28" value="kontaktné údaje" style="text;strokeColor=none;fillColor=none;align=left;verticalAlign=top;spacingLeft=4;spacingRight=4;overflow=hidden;rotatable=0;points=[[0,0.5],[1,0.5]];portConstraint=eastwest;" vertex="1" parent="jdFO0gg6krLH-1RtM8wd-1">
          <mxGeometry y="52" width="160" height="26" as="geometry" />
        </mxCell>
        <mxCell id="C7E4gYj_CncNiSk5vlhF-29" value="údaje o kreditnej karte" style="text;strokeColor=none;fillColor=none;align=left;verticalAlign=top;spacingLeft=4;spacingRight=4;overflow=hidden;rotatable=0;points=[[0,0.5],[1,0.5]];portConstraint=eastwest;" vertex="1" parent="jdFO0gg6krLH-1RtM8wd-1">
          <mxGeometry y="78" width="160" height="26" as="geometry" />
        </mxCell>
        <mxCell id="jdFO0gg6krLH-1RtM8wd-3" value="" style="line;strokeWidth=1;fillColor=none;align=left;verticalAlign=middle;spacingTop=-1;spacingLeft=3;spacingRight=3;rotatable=0;labelPosition=right;points=[];portConstraint=eastwest;" parent="jdFO0gg6krLH-1RtM8wd-1" vertex="1">
          <mxGeometry y="104" width="160" height="8" as="geometry" />
        </mxCell>
        <mxCell id="jdFO0gg6krLH-1RtM8wd-4" value="vytvoriť" style="text;strokeColor=none;fillColor=none;align=left;verticalAlign=top;spacingLeft=4;spacingRight=4;overflow=hidden;rotatable=0;points=[[0,0.5],[1,0.5]];portConstraint=eastwest;" parent="jdFO0gg6krLH-1RtM8wd-1" vertex="1">
          <mxGeometry y="112" width="160" height="26" as="geometry" />
        </mxCell>
        <mxCell id="C7E4gYj_CncNiSk5vlhF-30" value="upraviť" style="text;strokeColor=none;fillColor=none;align=left;verticalAlign=top;spacingLeft=4;spacingRight=4;overflow=hidden;rotatable=0;points=[[0,0.5],[1,0.5]];portConstraint=eastwest;" vertex="1" parent="jdFO0gg6krLH-1RtM8wd-1">
          <mxGeometry y="138" width="160" height="26" as="geometry" />
        </mxCell>
        <mxCell id="C7E4gYj_CncNiSk5vlhF-31" value="zrušiť" style="text;strokeColor=none;fillColor=none;align=left;verticalAlign=top;spacingLeft=4;spacingRight=4;overflow=hidden;rotatable=0;points=[[0,0.5],[1,0.5]];portConstraint=eastwest;" vertex="1" parent="jdFO0gg6krLH-1RtM8wd-1">
          <mxGeometry y="164" width="160" height="26" as="geometry" />
        </mxCell>
        <mxCell id="C7E4gYj_CncNiSk5vlhF-1" value="Mapa" style="swimlane;fontStyle=1;align=center;verticalAlign=top;childLayout=stackLayout;horizontal=1;startSize=26;horizontalStack=0;resizeParent=1;resizeParentMax=0;resizeLast=0;collapsible=1;marginBottom=0;" vertex="1" parent="1">
          <mxGeometry x="240" y="693" width="160" height="190" as="geometry" />
        </mxCell>
        <mxCell id="C7E4gYj_CncNiSk5vlhF-2" value="trasa" style="text;strokeColor=none;fillColor=none;align=left;verticalAlign=top;spacingLeft=4;spacingRight=4;overflow=hidden;rotatable=0;points=[[0,0.5],[1,0.5]];portConstraint=eastwest;" vertex="1" parent="C7E4gYj_CncNiSk5vlhF-1">
          <mxGeometry y="26" width="160" height="26" as="geometry" />
        </mxCell>
        <mxCell id="C7E4gYj_CncNiSk5vlhF-35" value="lokácia" style="text;strokeColor=none;fillColor=none;align=left;verticalAlign=top;spacingLeft=4;spacingRight=4;overflow=hidden;rotatable=0;points=[[0,0.5],[1,0.5]];portConstraint=eastwest;" vertex="1" parent="C7E4gYj_CncNiSk5vlhF-1">
          <mxGeometry y="52" width="160" height="26" as="geometry" />
        </mxCell>
        <mxCell id="C7E4gYj_CncNiSk5vlhF-36" value="destinácia" style="text;strokeColor=none;fillColor=none;align=left;verticalAlign=top;spacingLeft=4;spacingRight=4;overflow=hidden;rotatable=0;points=[[0,0.5],[1,0.5]];portConstraint=eastwest;" vertex="1" parent="C7E4gYj_CncNiSk5vlhF-1">
          <mxGeometry y="78" width="160" height="26" as="geometry" />
        </mxCell>
        <mxCell id="C7E4gYj_CncNiSk5vlhF-3" value="" style="line;strokeWidth=1;fillColor=none;align=left;verticalAlign=middle;spacingTop=-1;spacingLeft=3;spacingRight=3;rotatable=0;labelPosition=right;points=[];portConstraint=eastwest;" vertex="1" parent="C7E4gYj_CncNiSk5vlhF-1">
          <mxGeometry y="104" width="160" height="8" as="geometry" />
        </mxCell>
        <mxCell id="C7E4gYj_CncNiSk5vlhF-4" value="zobraziť" style="text;strokeColor=none;fillColor=none;align=left;verticalAlign=top;spacingLeft=4;spacingRight=4;overflow=hidden;rotatable=0;points=[[0,0.5],[1,0.5]];portConstraint=eastwest;" vertex="1" parent="C7E4gYj_CncNiSk5vlhF-1">
          <mxGeometry y="112" width="160" height="26" as="geometry" />
        </mxCell>
        <mxCell id="C7E4gYj_CncNiSk5vlhF-37" value="vyznačiť trasu" style="text;strokeColor=none;fillColor=none;align=left;verticalAlign=top;spacingLeft=4;spacingRight=4;overflow=hidden;rotatable=0;points=[[0,0.5],[1,0.5]];portConstraint=eastwest;" vertex="1" parent="C7E4gYj_CncNiSk5vlhF-1">
          <mxGeometry y="138" width="160" height="26" as="geometry" />
        </mxCell>
        <mxCell id="C7E4gYj_CncNiSk5vlhF-38" value="nájsť lokáciu / destináciu" style="text;strokeColor=none;fillColor=none;align=left;verticalAlign=top;spacingLeft=4;spacingRight=4;overflow=hidden;rotatable=0;points=[[0,0.5],[1,0.5]];portConstraint=eastwest;" vertex="1" parent="C7E4gYj_CncNiSk5vlhF-1">
          <mxGeometry y="164" width="160" height="26" as="geometry" />
        </mxCell>
        <mxCell id="C7E4gYj_CncNiSk5vlhF-5" value="Záložka destinácie" style="swimlane;fontStyle=1;align=center;verticalAlign=top;childLayout=stackLayout;horizontal=1;startSize=26;horizontalStack=0;resizeParent=1;resizeParentMax=0;resizeLast=0;collapsible=1;marginBottom=0;" vertex="1" parent="1">
          <mxGeometry x="240" y="443" width="160" height="164" as="geometry" />
        </mxCell>
        <mxCell id="C7E4gYj_CncNiSk5vlhF-6" value="názov" style="text;strokeColor=none;fillColor=none;align=left;verticalAlign=top;spacingLeft=4;spacingRight=4;overflow=hidden;rotatable=0;points=[[0,0.5],[1,0.5]];portConstraint=eastwest;" vertex="1" parent="C7E4gYj_CncNiSk5vlhF-5">
          <mxGeometry y="26" width="160" height="26" as="geometry" />
        </mxCell>
        <mxCell id="C7E4gYj_CncNiSk5vlhF-32" value="poloha" style="text;strokeColor=none;fillColor=none;align=left;verticalAlign=top;spacingLeft=4;spacingRight=4;overflow=hidden;rotatable=0;points=[[0,0.5],[1,0.5]];portConstraint=eastwest;" vertex="1" parent="C7E4gYj_CncNiSk5vlhF-5">
          <mxGeometry y="52" width="160" height="26" as="geometry" />
        </mxCell>
        <mxCell id="C7E4gYj_CncNiSk5vlhF-7" value="" style="line;strokeWidth=1;fillColor=none;align=left;verticalAlign=middle;spacingTop=-1;spacingLeft=3;spacingRight=3;rotatable=0;labelPosition=right;points=[];portConstraint=eastwest;" vertex="1" parent="C7E4gYj_CncNiSk5vlhF-5">
          <mxGeometry y="78" width="160" height="8" as="geometry" />
        </mxCell>
        <mxCell id="C7E4gYj_CncNiSk5vlhF-8" value="vytvoriť" style="text;strokeColor=none;fillColor=none;align=left;verticalAlign=top;spacingLeft=4;spacingRight=4;overflow=hidden;rotatable=0;points=[[0,0.5],[1,0.5]];portConstraint=eastwest;" vertex="1" parent="C7E4gYj_CncNiSk5vlhF-5">
          <mxGeometry y="86" width="160" height="26" as="geometry" />
        </mxCell>
        <mxCell id="C7E4gYj_CncNiSk5vlhF-33" value="upraviť" style="text;strokeColor=none;fillColor=none;align=left;verticalAlign=top;spacingLeft=4;spacingRight=4;overflow=hidden;rotatable=0;points=[[0,0.5],[1,0.5]];portConstraint=eastwest;" vertex="1" parent="C7E4gYj_CncNiSk5vlhF-5">
          <mxGeometry y="112" width="160" height="26" as="geometry" />
        </mxCell>
        <mxCell id="C7E4gYj_CncNiSk5vlhF-34" value="zrušiť" style="text;strokeColor=none;fillColor=none;align=left;verticalAlign=top;spacingLeft=4;spacingRight=4;overflow=hidden;rotatable=0;points=[[0,0.5],[1,0.5]];portConstraint=eastwest;" vertex="1" parent="C7E4gYj_CncNiSk5vlhF-5">
          <mxGeometry y="138" width="160" height="26" as="geometry" />
        </mxCell>
        <mxCell id="C7E4gYj_CncNiSk5vlhF-9" value="1" style="endArrow=open;html=1;endSize=12;startArrow=diamondThin;startSize=14;startFill=0;edgeStyle=orthogonalEdgeStyle;align=left;verticalAlign=bottom;rounded=0;" edge="1" parent="1" source="VDZjWGTv7sK5HXdo6hYH-13" target="VDZjWGTv7sK5HXdo6hYH-9">
          <mxGeometry x="-0.8182" y="5" relative="1" as="geometry">
            <mxPoint x="510" y="593" as="sourcePoint" />
            <mxPoint x="670" y="593" as="targetPoint" />
            <Array as="points" />
            <mxPoint as="offset" />
          </mxGeometry>
        </mxCell>
        <mxCell id="C7E4gYj_CncNiSk5vlhF-41" value="0..*" style="edgeLabel;html=1;align=center;verticalAlign=middle;resizable=0;points=[];" vertex="1" connectable="0" parent="C7E4gYj_CncNiSk5vlhF-9">
          <mxGeometry x="0.6339" y="1" relative="1" as="geometry">
            <mxPoint y="-12" as="offset" />
          </mxGeometry>
        </mxCell>
        <mxCell id="C7E4gYj_CncNiSk5vlhF-10" value="" style="endArrow=none;html=1;edgeStyle=orthogonalEdgeStyle;rounded=0;" edge="1" parent="1" source="C7E4gYj_CncNiSk5vlhF-5" target="VDZjWGTv7sK5HXdo6hYH-1">
          <mxGeometry relative="1" as="geometry">
            <mxPoint x="740" y="603" as="sourcePoint" />
            <mxPoint x="900" y="603" as="targetPoint" />
            <Array as="points">
              <mxPoint x="530" y="553" />
              <mxPoint x="530" y="653" />
            </Array>
          </mxGeometry>
        </mxCell>
        <mxCell id="C7E4gYj_CncNiSk5vlhF-11" value="1" style="edgeLabel;resizable=0;html=1;align=left;verticalAlign=bottom;" connectable="0" vertex="1" parent="C7E4gYj_CncNiSk5vlhF-10">
          <mxGeometry x="-1" relative="1" as="geometry">
            <mxPoint x="10" as="offset" />
          </mxGeometry>
        </mxCell>
        <mxCell id="C7E4gYj_CncNiSk5vlhF-12" value="1..*" style="edgeLabel;resizable=0;html=1;align=right;verticalAlign=bottom;" connectable="0" vertex="1" parent="C7E4gYj_CncNiSk5vlhF-10">
          <mxGeometry x="1" relative="1" as="geometry">
            <mxPoint x="-10" as="offset" />
          </mxGeometry>
        </mxCell>
        <mxCell id="C7E4gYj_CncNiSk5vlhF-13" value="" style="endArrow=none;html=1;edgeStyle=orthogonalEdgeStyle;rounded=0;" edge="1" parent="1" source="C7E4gYj_CncNiSk5vlhF-1" target="C7E4gYj_CncNiSk5vlhF-5">
          <mxGeometry relative="1" as="geometry">
            <mxPoint x="740" y="603" as="sourcePoint" />
            <mxPoint x="900" y="603" as="targetPoint" />
          </mxGeometry>
        </mxCell>
        <mxCell id="C7E4gYj_CncNiSk5vlhF-14" value="1" style="edgeLabel;resizable=0;html=1;align=left;verticalAlign=bottom;" connectable="0" vertex="1" parent="C7E4gYj_CncNiSk5vlhF-13">
          <mxGeometry x="-1" relative="1" as="geometry">
            <mxPoint x="-20" as="offset" />
          </mxGeometry>
        </mxCell>
        <mxCell id="C7E4gYj_CncNiSk5vlhF-15" value="0..*" style="edgeLabel;resizable=0;html=1;align=right;verticalAlign=bottom;" connectable="0" vertex="1" parent="C7E4gYj_CncNiSk5vlhF-13">
          <mxGeometry x="1" relative="1" as="geometry">
            <mxPoint x="-10" y="20" as="offset" />
          </mxGeometry>
        </mxCell>
        <mxCell id="C7E4gYj_CncNiSk5vlhF-16" value="" style="endArrow=none;html=1;edgeStyle=orthogonalEdgeStyle;rounded=0;" edge="1" parent="1" source="C7E4gYj_CncNiSk5vlhF-1" target="VDZjWGTv7sK5HXdo6hYH-1">
          <mxGeometry relative="1" as="geometry">
            <mxPoint x="740" y="603" as="sourcePoint" />
            <mxPoint x="900" y="603" as="targetPoint" />
            <Array as="points">
              <mxPoint x="530" y="793" />
              <mxPoint x="530" y="723" />
            </Array>
          </mxGeometry>
        </mxCell>
        <mxCell id="C7E4gYj_CncNiSk5vlhF-17" value="1" style="edgeLabel;resizable=0;html=1;align=left;verticalAlign=bottom;" connectable="0" vertex="1" parent="C7E4gYj_CncNiSk5vlhF-16">
          <mxGeometry x="-1" relative="1" as="geometry">
            <mxPoint x="10" as="offset" />
          </mxGeometry>
        </mxCell>
        <mxCell id="C7E4gYj_CncNiSk5vlhF-18" value="0..*" style="edgeLabel;resizable=0;html=1;align=right;verticalAlign=bottom;" connectable="0" vertex="1" parent="C7E4gYj_CncNiSk5vlhF-16">
          <mxGeometry x="1" relative="1" as="geometry">
            <mxPoint x="-10" as="offset" />
          </mxGeometry>
        </mxCell>
        <mxCell id="C7E4gYj_CncNiSk5vlhF-19" value="" style="endArrow=none;html=1;edgeStyle=orthogonalEdgeStyle;rounded=0;" edge="1" parent="1" source="VDZjWGTv7sK5HXdo6hYH-13" target="VDZjWGTv7sK5HXdo6hYH-52">
          <mxGeometry relative="1" as="geometry">
            <mxPoint x="510" y="593" as="sourcePoint" />
            <mxPoint x="670" y="593" as="targetPoint" />
            <Array as="points">
              <mxPoint x="930" y="459" />
            </Array>
          </mxGeometry>
        </mxCell>
        <mxCell id="C7E4gYj_CncNiSk5vlhF-20" value="1..*" style="edgeLabel;resizable=0;html=1;align=left;verticalAlign=bottom;" connectable="0" vertex="1" parent="C7E4gYj_CncNiSk5vlhF-19">
          <mxGeometry x="-1" relative="1" as="geometry">
            <mxPoint x="-30" y="20" as="offset" />
          </mxGeometry>
        </mxCell>
        <mxCell id="C7E4gYj_CncNiSk5vlhF-21" value="1..*" style="edgeLabel;resizable=0;html=1;align=right;verticalAlign=bottom;" connectable="0" vertex="1" parent="C7E4gYj_CncNiSk5vlhF-19">
          <mxGeometry x="1" relative="1" as="geometry">
            <mxPoint x="24" as="offset" />
          </mxGeometry>
        </mxCell>
        <mxCell id="C7E4gYj_CncNiSk5vlhF-22" value="" style="endArrow=none;html=1;edgeStyle=orthogonalEdgeStyle;rounded=0;" edge="1" parent="1" source="jdFO0gg6krLH-1RtM8wd-1" target="VDZjWGTv7sK5HXdo6hYH-52">
          <mxGeometry relative="1" as="geometry">
            <mxPoint x="510" y="593" as="sourcePoint" />
            <mxPoint x="850" y="443" as="targetPoint" />
            <Array as="points">
              <mxPoint x="520" y="463" />
            </Array>
          </mxGeometry>
        </mxCell>
        <mxCell id="C7E4gYj_CncNiSk5vlhF-23" value="1..*" style="edgeLabel;resizable=0;html=1;align=left;verticalAlign=bottom;" connectable="0" vertex="1" parent="C7E4gYj_CncNiSk5vlhF-22">
          <mxGeometry x="-1" relative="1" as="geometry">
            <mxPoint x="-30" y="20" as="offset" />
          </mxGeometry>
        </mxCell>
        <mxCell id="C7E4gYj_CncNiSk5vlhF-24" value="1..*" style="edgeLabel;resizable=0;html=1;align=right;verticalAlign=bottom;" connectable="0" vertex="1" parent="C7E4gYj_CncNiSk5vlhF-22">
          <mxGeometry x="1" relative="1" as="geometry">
            <mxPoint x="-10" as="offset" />
          </mxGeometry>
        </mxCell>
        <mxCell id="C7E4gYj_CncNiSk5vlhF-39" value="1" style="endArrow=open;html=1;endSize=12;startArrow=diamondThin;startSize=14;startFill=0;edgeStyle=orthogonalEdgeStyle;align=left;verticalAlign=bottom;rounded=0;" edge="1" parent="1" source="VDZjWGTv7sK5HXdo6hYH-1" target="VDZjWGTv7sK5HXdo6hYH-52">
          <mxGeometry x="-0.7436" y="20" relative="1" as="geometry">
            <mxPoint x="750" y="593" as="sourcePoint" />
            <mxPoint x="910" y="593" as="targetPoint" />
            <mxPoint as="offset" />
          </mxGeometry>
        </mxCell>
        <mxCell id="C7E4gYj_CncNiSk5vlhF-40" value="1" style="edgeLabel;html=1;align=center;verticalAlign=middle;resizable=0;points=[];" vertex="1" connectable="0" parent="C7E4gYj_CncNiSk5vlhF-39">
          <mxGeometry x="0.7509" y="-2" relative="1" as="geometry">
            <mxPoint x="-22" y="1" as="offset" />
          </mxGeometry>
        </mxCell>
        <mxCell id="C7E4gYj_CncNiSk5vlhF-42" value="1" style="endArrow=open;html=1;endSize=12;startArrow=diamondThin;startSize=14;startFill=0;edgeStyle=orthogonalEdgeStyle;align=left;verticalAlign=bottom;rounded=0;" edge="1" parent="1" source="jdFO0gg6krLH-1RtM8wd-1" target="C7E4gYj_CncNiSk5vlhF-5">
          <mxGeometry x="-0.8507" y="-2" relative="1" as="geometry">
            <mxPoint x="600" y="373" as="sourcePoint" />
            <mxPoint x="760" y="373" as="targetPoint" />
            <mxPoint as="offset" />
          </mxGeometry>
        </mxCell>
        <mxCell id="C7E4gYj_CncNiSk5vlhF-43" value="0..*" style="edgeLabel;html=1;align=center;verticalAlign=middle;resizable=0;points=[];" vertex="1" connectable="0" parent="C7E4gYj_CncNiSk5vlhF-42">
          <mxGeometry x="0.7906" relative="1" as="geometry">
            <mxPoint x="-20" y="14" as="offset" />
          </mxGeometry>
        </mxCell>
      </root>
    </mxGraphModel>
  </diagram>
</mxfile>
